<?xml version="1.0" standalone="no"?>
<!DOCTYPE svg PUBLIC "-//W3C//DTD SVG 20010904//EN"
 "http://www.w3.org/TR/2001/REC-SVG-20010904/DTD/svg10.dtd">
<svg version="1.0" xmlns="http://www.w3.org/2000/svg"
 width="648.000000pt" height="588.000000pt" viewBox="0 0 648.000000 588.000000"
 preserveAspectRatio="xMidYMid meet">
<metadata>
Created by potrace 1.10, written by Peter Selinger 2001-2011
</metadata>
<g transform="translate(0.000000,588.000000) scale(0.100000,-0.100000)"
fill="#000000" stroke="none">
<path d="M985 5560 c-180 -29 -242 -57 -335 -151 -69 -69 -106 -133 -136 -239
-18 -60 -19 -106 -19 -610 l0 -545 227 -3 228 -2 2 177 3 178 60 5 60 5 0 200
0 200 -50 5 c-27 3 -56 9 -62 13 -20 13 -16 171 6 232 26 75 89 98 136 50 l25
-24 0 -508 c0 -279 4 -514 8 -521 7 -9 60 -12 233 -10 l224 3 3 515 c4 637 -3
709 -86 838 -63 96 -142 149 -273 180 -65 16 -194 22 -254 12z"/>
<path d="M1700 5511 c-16 -31 -13 -406 3 -420 9 -7 92 -12 233 -13 l219 -3 -2
-26 c-1 -14 -15 -56 -33 -95 -39 -86 -58 -130 -76 -172 -7 -18 -20 -48 -29
-67 -8 -19 -22 -51 -30 -70 -44 -100 -65 -149 -93 -215 -8 -19 -18 -42 -22
-51 -5 -8 -34 -76 -65 -150 -32 -74 -61 -139 -65 -144 -5 -6 -10 -24 -12 -40
l-3 -30 570 0 570 0 0 220 0 220 -215 3 c-118 1 -218 6 -223 11 -5 5 -3 21 6
38 14 27 29 60 64 140 9 21 19 45 23 54 5 8 34 76 65 149 31 73 60 141 65 149
4 9 14 32 22 51 8 19 22 52 31 73 9 20 23 52 31 70 8 17 21 49 30 69 9 21 23
52 31 70 7 18 27 63 45 99 17 38 28 73 24 82 -6 16 -53 17 -580 17 -557 0
-574 -1 -584 -19z"/>
<path d="M2115 2266 c-5 -2 -37 -10 -70 -17 -126 -27 -212 -85 -299 -199 -65
-85 -95 -172 -103 -291 -4 -63 -1 -100 11 -141 9 -31 16 -64 16 -73 0 -10 28
-74 61 -143 84 -171 84 -209 -3 -253 -38 -19 -78 -18 -105 3 -6 5 -24 8 -40 6
l-28 -3 -3 -203 c-1 -112 2 -210 6 -219 18 -31 83 -47 214 -50 98 -3 134 -1
163 11 21 9 43 16 51 16 45 0 220 142 259 211 48 85 74 177 74 264 1 59 -22
192 -36 220 -6 11 -19 38 -28 60 -10 22 -22 47 -26 55 -35 62 -69 144 -69 165
0 31 22 76 46 96 11 9 41 14 83 14 l66 0 3 211 c2 162 -1 213 -10 221 -31 23
-200 51 -233 39z"/>
<path d="M2540 2211 c-7 -14 -9 -261 -8 -758 l3 -738 210 0 210 0 3 318 c3
351 5 367 62 367 59 0 59 -5 62 -361 l3 -324 210 0 210 0 3 349 c3 417 -3 496
-46 586 -32 67 -89 140 -109 140 -6 0 -16 6 -22 14 -6 7 -45 21 -88 31 -74 18
-79 18 -150 0 -40 -10 -78 -24 -84 -32 -6 -7 -20 -13 -30 -13 -18 0 -19 11
-19 204 0 112 -3 211 -6 220 -5 14 -33 16 -205 16 -186 0 -199 -1 -209 -19z"/>
<path d="M4185 1844 c-11 -2 -45 -9 -75 -15 -101 -20 -225 -91 -303 -174 -32
-34 -85 -123 -106 -175 -26 -69 -40 -199 -29 -285 17 -144 57 -226 162 -331
121 -121 246 -173 416 -173 171 0 296 52 416 173 45 46 85 93 89 107 4 13 13
31 19 39 7 8 21 40 31 70 30 83 28 303 -3 382 -57 150 -165 269 -302 333 -78
37 -251 64 -315 49z m118 -439 c42 -18 73 -54 89 -107 10 -34 9 -44 -11 -86
-31 -66 -63 -87 -131 -87 -66 0 -109 27 -135 86 -22 49 -15 99 21 146 44 58
102 75 167 48z"/>
<path d="M5425 1831 c-218 -48 -372 -189 -435 -401 -19 -61 -27 -1095 -9
-1116 10 -12 49 -14 208 -12 l196 3 6 485 c6 505 6 516 50 577 18 25 76 53
112 53 27 0 90 -39 118 -73 12 -15 18 -39 19 -74 0 -48 -3 -54 -46 -97 -40
-40 -51 -46 -88 -46 -23 0 -52 7 -64 16 -49 34 -52 22 -52 -209 0 -162 3 -218
13 -231 11 -15 27 -19 93 -18 161 1 289 51 397 155 110 106 158 198 179 341
17 122 -5 268 -53 346 -5 8 -12 22 -16 30 -19 44 -88 121 -148 165 -99 73
-135 88 -285 115 -73 13 -100 12 -195 -9z"/>
</g>
</svg>
